<mxfile host="app.diagrams.net" modified="2023-04-17T20:36:23.398Z" agent="Mozilla/5.0 (Windows NT 10.0; Win64; x64) AppleWebKit/537.36 (KHTML, like Gecko) Chrome/112.0.0.0 Safari/537.36" etag="ovpRI5CEYjVzEDns1nOs" version="21.1.7" type="device">
  <diagram name="Page-1" id="2YBvvXClWsGukQMizWep">
    <mxGraphModel dx="1290" dy="549" grid="1" gridSize="10" guides="1" tooltips="1" connect="1" arrows="1" fold="1" page="1" pageScale="1" pageWidth="850" pageHeight="1100" math="0" shadow="0">
      <root>
        <mxCell id="0" />
        <mxCell id="1" parent="0" />
        <mxCell id="gy3vj8X83Pvl8vlX3r9X-1" value="" style="ellipse;whiteSpace=wrap;html=1;aspect=fixed;fillColor=#330000;" parent="1" vertex="1">
          <mxGeometry x="255" y="40" width="40" height="40" as="geometry" />
        </mxCell>
        <mxCell id="gy3vj8X83Pvl8vlX3r9X-4" value="" style="ellipse;html=1;shape=endState;fillColor=#000000;strokeColor=#ff0000;" parent="1" vertex="1">
          <mxGeometry x="247.5" y="880" width="40" height="40" as="geometry" />
        </mxCell>
        <mxCell id="gy3vj8X83Pvl8vlX3r9X-5" value="INIT" style="rounded=0;whiteSpace=wrap;html=1;" parent="1" vertex="1">
          <mxGeometry x="180" y="130" width="190" height="35" as="geometry" />
        </mxCell>
        <mxCell id="gy3vj8X83Pvl8vlX3r9X-7" value="PREP_AVANCER_PATTE_AV" style="rounded=0;whiteSpace=wrap;html=1;" parent="1" vertex="1">
          <mxGeometry x="180" y="200" width="190" height="35" as="geometry" />
        </mxCell>
        <mxCell id="gy3vj8X83Pvl8vlX3r9X-10" value="AVANCER_PATTE_AVANT" style="rounded=0;whiteSpace=wrap;html=1;" parent="1" vertex="1">
          <mxGeometry x="180" y="280" width="190" height="35" as="geometry" />
        </mxCell>
        <mxCell id="gy3vj8X83Pvl8vlX3r9X-11" value="PREP_MONTER_CORPS" style="rounded=0;whiteSpace=wrap;html=1;" parent="1" vertex="1">
          <mxGeometry x="180" y="360" width="190" height="35" as="geometry" />
        </mxCell>
        <mxCell id="gy3vj8X83Pvl8vlX3r9X-12" value="MONTER_CORPS" style="rounded=0;whiteSpace=wrap;html=1;" parent="1" vertex="1">
          <mxGeometry x="180" y="440" width="190" height="35" as="geometry" />
        </mxCell>
        <mxCell id="gy3vj8X83Pvl8vlX3r9X-13" value="AVANCER_CORPS" style="rounded=0;whiteSpace=wrap;html=1;" parent="1" vertex="1">
          <mxGeometry x="180" y="510" width="190" height="35" as="geometry" />
        </mxCell>
        <mxCell id="gy3vj8X83Pvl8vlX3r9X-14" value="PREP_AVANCER_PATTE_ARR" style="rounded=0;whiteSpace=wrap;html=1;" parent="1" vertex="1">
          <mxGeometry x="180" y="580" width="190" height="35" as="geometry" />
        </mxCell>
        <mxCell id="gy3vj8X83Pvl8vlX3r9X-29" style="edgeStyle=orthogonalEdgeStyle;rounded=0;orthogonalLoop=1;jettySize=auto;html=1;exitX=0.5;exitY=1;exitDx=0;exitDy=0;entryX=0.5;entryY=0;entryDx=0;entryDy=0;" parent="1" source="gy3vj8X83Pvl8vlX3r9X-15" target="gy3vj8X83Pvl8vlX3r9X-28" edge="1">
          <mxGeometry relative="1" as="geometry" />
        </mxCell>
        <mxCell id="gy3vj8X83Pvl8vlX3r9X-15" value="AVANCER_PATTE_ARR" style="rounded=0;whiteSpace=wrap;html=1;" parent="1" vertex="1">
          <mxGeometry x="180" y="650" width="190" height="35" as="geometry" />
        </mxCell>
        <mxCell id="gy3vj8X83Pvl8vlX3r9X-16" value="RETOUR_DEPART" style="rounded=0;whiteSpace=wrap;html=1;" parent="1" vertex="1">
          <mxGeometry x="172.5" y="820" width="190" height="35" as="geometry" />
        </mxCell>
        <mxCell id="gy3vj8X83Pvl8vlX3r9X-17" value="" style="endArrow=classic;html=1;rounded=0;exitX=0.5;exitY=1;exitDx=0;exitDy=0;entryX=0.5;entryY=0;entryDx=0;entryDy=0;" parent="1" source="gy3vj8X83Pvl8vlX3r9X-1" target="gy3vj8X83Pvl8vlX3r9X-5" edge="1">
          <mxGeometry width="50" height="50" relative="1" as="geometry">
            <mxPoint x="410" y="110" as="sourcePoint" />
            <mxPoint x="460" y="60" as="targetPoint" />
          </mxGeometry>
        </mxCell>
        <mxCell id="gy3vj8X83Pvl8vlX3r9X-18" value="" style="endArrow=classic;html=1;rounded=0;entryX=0.5;entryY=0;entryDx=0;entryDy=0;exitX=0.5;exitY=1;exitDx=0;exitDy=0;" parent="1" source="gy3vj8X83Pvl8vlX3r9X-16" target="gy3vj8X83Pvl8vlX3r9X-4" edge="1">
          <mxGeometry width="50" height="50" relative="1" as="geometry">
            <mxPoint x="407.5" y="770" as="sourcePoint" />
            <mxPoint x="457.5" y="720" as="targetPoint" />
          </mxGeometry>
        </mxCell>
        <mxCell id="gy3vj8X83Pvl8vlX3r9X-19" value="" style="endArrow=classic;html=1;rounded=0;exitX=0.5;exitY=1;exitDx=0;exitDy=0;entryX=0.5;entryY=0;entryDx=0;entryDy=0;" parent="1" source="gy3vj8X83Pvl8vlX3r9X-5" target="gy3vj8X83Pvl8vlX3r9X-7" edge="1">
          <mxGeometry width="50" height="50" relative="1" as="geometry">
            <mxPoint x="430" y="90" as="sourcePoint" />
            <mxPoint x="480" y="40" as="targetPoint" />
          </mxGeometry>
        </mxCell>
        <mxCell id="gy3vj8X83Pvl8vlX3r9X-20" value="" style="endArrow=classic;html=1;rounded=0;exitX=0.5;exitY=1;exitDx=0;exitDy=0;entryX=0.5;entryY=0;entryDx=0;entryDy=0;" parent="1" source="gy3vj8X83Pvl8vlX3r9X-7" target="gy3vj8X83Pvl8vlX3r9X-10" edge="1">
          <mxGeometry width="50" height="50" relative="1" as="geometry">
            <mxPoint x="285" y="175" as="sourcePoint" />
            <mxPoint x="285" y="210" as="targetPoint" />
          </mxGeometry>
        </mxCell>
        <mxCell id="gy3vj8X83Pvl8vlX3r9X-21" value="" style="endArrow=classic;html=1;rounded=0;exitX=0.5;exitY=1;exitDx=0;exitDy=0;entryX=0.5;entryY=0;entryDx=0;entryDy=0;" parent="1" source="gy3vj8X83Pvl8vlX3r9X-10" target="gy3vj8X83Pvl8vlX3r9X-11" edge="1">
          <mxGeometry width="50" height="50" relative="1" as="geometry">
            <mxPoint x="295" y="185" as="sourcePoint" />
            <mxPoint x="295" y="220" as="targetPoint" />
          </mxGeometry>
        </mxCell>
        <mxCell id="gy3vj8X83Pvl8vlX3r9X-22" value="" style="endArrow=classic;html=1;rounded=0;exitX=0.5;exitY=1;exitDx=0;exitDy=0;entryX=0.5;entryY=0;entryDx=0;entryDy=0;" parent="1" source="gy3vj8X83Pvl8vlX3r9X-11" target="gy3vj8X83Pvl8vlX3r9X-12" edge="1">
          <mxGeometry width="50" height="50" relative="1" as="geometry">
            <mxPoint x="305" y="195" as="sourcePoint" />
            <mxPoint x="305" y="230" as="targetPoint" />
          </mxGeometry>
        </mxCell>
        <mxCell id="gy3vj8X83Pvl8vlX3r9X-23" value="" style="endArrow=classic;html=1;rounded=0;exitX=0.5;exitY=1;exitDx=0;exitDy=0;entryX=0.5;entryY=0;entryDx=0;entryDy=0;" parent="1" source="gy3vj8X83Pvl8vlX3r9X-12" target="gy3vj8X83Pvl8vlX3r9X-13" edge="1">
          <mxGeometry width="50" height="50" relative="1" as="geometry">
            <mxPoint x="315" y="205" as="sourcePoint" />
            <mxPoint x="315" y="240" as="targetPoint" />
          </mxGeometry>
        </mxCell>
        <mxCell id="gy3vj8X83Pvl8vlX3r9X-24" value="" style="endArrow=classic;html=1;rounded=0;entryX=0.5;entryY=0;entryDx=0;entryDy=0;exitX=0.5;exitY=1;exitDx=0;exitDy=0;" parent="1" source="gy3vj8X83Pvl8vlX3r9X-13" target="gy3vj8X83Pvl8vlX3r9X-14" edge="1">
          <mxGeometry width="50" height="50" relative="1" as="geometry">
            <mxPoint x="410" y="560" as="sourcePoint" />
            <mxPoint x="285" y="520" as="targetPoint" />
          </mxGeometry>
        </mxCell>
        <mxCell id="gy3vj8X83Pvl8vlX3r9X-25" value="" style="endArrow=classic;html=1;rounded=0;exitX=0.5;exitY=1;exitDx=0;exitDy=0;entryX=0.5;entryY=0;entryDx=0;entryDy=0;" parent="1" source="gy3vj8X83Pvl8vlX3r9X-14" target="gy3vj8X83Pvl8vlX3r9X-15" edge="1">
          <mxGeometry width="50" height="50" relative="1" as="geometry">
            <mxPoint x="295" y="495" as="sourcePoint" />
            <mxPoint x="295" y="530" as="targetPoint" />
          </mxGeometry>
        </mxCell>
        <mxCell id="gy3vj8X83Pvl8vlX3r9X-27" value="" style="endArrow=classic;html=1;rounded=0;exitX=1;exitY=0.5;exitDx=0;exitDy=0;entryX=1;entryY=0.5;entryDx=0;entryDy=0;" parent="1" source="gy3vj8X83Pvl8vlX3r9X-28" target="gy3vj8X83Pvl8vlX3r9X-10" edge="1">
          <mxGeometry width="50" height="50" relative="1" as="geometry">
            <mxPoint x="500" y="570" as="sourcePoint" />
            <mxPoint x="440" y="218.4000244140625" as="targetPoint" />
            <Array as="points">
              <mxPoint x="440" y="745" />
              <mxPoint x="440" y="298" />
            </Array>
          </mxGeometry>
        </mxCell>
        <mxCell id="gy3vj8X83Pvl8vlX3r9X-31" value="nbSequences = -1 || nbSequences &amp;gt; 1" style="edgeLabel;html=1;align=center;verticalAlign=middle;resizable=0;points=[];" parent="gy3vj8X83Pvl8vlX3r9X-27" vertex="1" connectable="0">
          <mxGeometry x="-0.8349" y="2" relative="1" as="geometry">
            <mxPoint x="41" y="17" as="offset" />
          </mxGeometry>
        </mxCell>
        <mxCell id="gy3vj8X83Pvl8vlX3r9X-30" style="edgeStyle=orthogonalEdgeStyle;rounded=0;orthogonalLoop=1;jettySize=auto;html=1;exitX=0.5;exitY=1;exitDx=0;exitDy=0;entryX=0.5;entryY=0;entryDx=0;entryDy=0;" parent="1" source="gy3vj8X83Pvl8vlX3r9X-28" target="gy3vj8X83Pvl8vlX3r9X-16" edge="1">
          <mxGeometry relative="1" as="geometry" />
        </mxCell>
        <mxCell id="gy3vj8X83Pvl8vlX3r9X-28" value="" style="rhombus;whiteSpace=wrap;html=1;" parent="1" vertex="1">
          <mxGeometry x="240" y="720" width="55" height="50" as="geometry" />
        </mxCell>
        <mxCell id="gy3vj8X83Pvl8vlX3r9X-33" value="nbSequences = -2 || nbSequences = 1" style="edgeLabel;html=1;align=center;verticalAlign=middle;resizable=0;points=[];" parent="1" vertex="1" connectable="0">
          <mxGeometry x="170.00275862068978" y="790" as="geometry" />
        </mxCell>
      </root>
    </mxGraphModel>
  </diagram>
</mxfile>
